Coordinates
version=1
nRows=14
nColumns=38
inDegrees=no

Units are S.I. units (second, meters, Newtons, ...)
If the header above contains a line with 'inDegrees', this indicates whether rotational values are in degrees (yes) or radians (no).

endheader
time	pelvis_tilt	pelvis_list	pelvis_rotation	pelvis_tx	pelvis_ty	pelvis_tz	hip_flexion_r	hip_adduction_r	hip_rotation_r	knee_angle_r	ankle_angle_r	subtalar_angle_r	mtp_angle_r	hip_flexion_l	hip_adduction_l	hip_rotation_l	knee_angle_l	ankle_angle_l	subtalar_angle_l	mtp_angle_l	lumbar_extension	lumbar_bending	lumbar_rotation	arm_flex_r	arm_add_r	arm_rot_r	elbow_flex_r	pro_sup_r	wrist_flex_r	wrist_dev_r	arm_flex_l	arm_add_l	arm_rot_l	elbow_flex_l	pro_sup_l	wrist_flex_l	wrist_dev_l
0	0.232016	1.3425	-1.72525	0.791176	1.77197	0.935642	0.234995	-0.127457	-0.370338	0.162917	0.109528	0	0	-0.411407	0.108655	-0.150556	0.112097	0.131362	0	0	-0.26962	0.0418628	-0.0906777	0.345177	-0.09135	-0.576553	1.64943	0	0	0	0.474976	-0.208804	-0.431444	1.59987	0.601738	0	0
0.01	0.251956	1.35833	-1.74845	0.790635	1.76046	0.932792	0.221964	-0.106936	-0.344609	0.0635387	0.0818659	0	0	-0.412621	0.110676	-0.148133	0.103518	0.136434	0	0	-0.238232	0.0461714	-0.0703839	0.323995	-0.100824	-0.580274	1.66408	0	0	0	0.479287	-0.176326	-0.447425	1.56085	0.614487	0	0
0.02	0.273141	1.35579	-1.77161	0.789691	1.74944	0.929778	0.198768	-0.0959704	-0.337727	0	0.0644724	0	0	-0.43291	0.114316	-0.14824	0.0964203	0.145521	0	0	-0.251039	0.0308545	-0.0901824	0.338487	-0.0936703	-0.563209	1.65984	0	0	0	0.475905	-0.214368	-0.428053	1.59766	0.625636	0	0
0.03	0.280222	1.35997	-1.78218	0.789781	1.73913	0.926591	0.212162	-0.0902153	-0.347794	0	0.0560727	0	0	-0.440721	0.118085	-0.145181	0.0998648	0.154036	0	0	-0.244871	0.0300286	-0.0869266	0.322524	-0.103947	-0.522539	1.72594	0.661065	0	0	0.476341	-0.216142	-0.413445	1.59811	0.763944	0	0
0.04	0.307078	1.37462	-1.80902	0.789417	1.72743	0.922855	0.230139	-0.0870299	-0.366944	0	0.0551247	0	0	-0.426509	0.115424	-0.166871	0.12548	0.181076	0	0	-0.222837	0.0264133	-0.0876734	0.318266	-0.105427	-0.516117	1.72537	0.717511	0	0	0.472175	-0.217351	-0.40871	1.59058	0.77847	0	0
0.05	0.285885	1.37472	-1.79634	0.78703	1.71457	0.92047	0.225249	-0.0726993	-0.368645	0	0.0506701	0	0	-0.454929	0.112229	-0.153164	0.102067	0.175164	0	0	-0.218793	0.0257611	-0.0793522	0.321303	-0.101101	-0.549282	1.67588	0	0	0	0.474057	-0.21785	-0.421953	1.56979	0.494636	0	0
0.06	0.296872	1.36729	-1.7949	0.789567	1.70328	0.919647	0.206999	-0.0755469	-0.388358	0	0.0474229	0	0	-0.471953	0.110094	-0.140783	0.110888	0.179311	0	0	-0.22435	0.0256529	-0.0921106	0.323815	-0.105057	-0.547618	1.67933	0	0	0	0.475151	-0.214375	-0.422073	1.56507	0.498667	0	0
0.07	0.281966	1.38021	-1.78834	0.786642	1.68935	0.916246	0.208751	-0.0570985	-0.382296	0	0.0409173	0	0	-0.465958	0.100295	-0.166381	0.130322	0.197011	0	0	-0.204782	0.0263126	-0.086172	0.319844	-0.102386	-0.546401	1.67897	0	0	0	0.466824	-0.217378	-0.422388	1.56581	0.517392	0	0
0.08	0.295883	1.36829	-1.78102	0.789739	1.67696	0.916465	0.173658	-0.0630437	-0.407075	0	0.0373718	0	0	-0.486146	0.0900833	-0.156335	0.142506	0.202691	0	0	-0.215083	0.0264069	-0.108485	0.32367	-0.106276	-0.543078	1.68208	0	0	0	0.46582	-0.214251	-0.425705	1.56506	0.529303	0	0
0.09	0.268759	1.37452	-1.76073	0.787275	1.66318	0.913949	0.181086	-0.0525597	-0.41157	0.0389962	0.0513197	0	0	-0.486501	0.0779393	-0.177299	0.163613	0.213973	0	0	-0.203864	0.0288489	-0.103265	0.318267	-0.105532	-0.540533	1.68425	0	0	0	0.456336	-0.216061	-0.421277	1.57258	0.640393	0	0
0.1	0.262274	1.3624	-1.73873	0.789877	1.65111	0.914163	0.177908	-0.0700057	-0.469887	0.105049	0.0948745	0	0	-0.499852	0.0694159	-0.167061	0.189353	0.215073	0	0	-0.21546	0.0329489	-0.119357	0.320891	-0.110491	-0.538249	1.68834	0	0	0	0.454646	-0.210472	-0.426209	1.56979	0.630567	0	0
0.11	0.21637	1.37148	-1.70286	0.786599	1.63693	0.911922	0.184858	-0.0516799	-0.464876	0.122678	0.113731	0	0	-0.491013	0.0509911	-0.201426	0.225025	0.227348	0	0	-0.20109	0.0393207	-0.109709	0.312975	-0.110785	-0.534703	1.69214	0	0	0	0.4443	-0.207833	-0.434003	1.56892	0.624726	0	0
0.12	0.173568	1.36868	-1.66017	0.785744	1.62369	0.911766	0.167963	-0.0345675	-0.447199	0.109105	0.0926975	0	0	-0.494369	0.0347941	-0.21145	0.255485	0.226028	0	0	-0.202515	0.0480186	-0.111362	0.311758	-0.113376	-0.530705	1.69152	0	0	0	0.437513	-0.202732	-0.443593	1.56779	0.616166	0	0
0.13	0.127337	1.36545	-1.61776	0.784227	1.61037	0.911826	0.149032	-0.0157497	-0.425586	0.0899522	0.0434207	0	0	-0.493947	0.0167334	-0.230656	0.294378	0.222491	0	0	-0.204072	0.0566703	-0.107439	0.309159	-0.116004	-0.528493	1.69295	0	0	0	0.430622	-0.195588	-0.453131	1.56663	0.604658	0	0
